<?xml version="1.0" encoding="UTF-8"?>
<svg id="a" data-name="Layer 2" xmlns="http://www.w3.org/2000/svg" viewBox="0 0 3000 464.13">
  <defs>
    <style>
      .c {
        fill: #3563ff;
      }
    </style>
  </defs>
  <g id="b" data-name="Layer 1">
    <g>
      <polygon class="c" points="1428.46 464.13 1389.38 464.13 1340.63 323.23 1374.98 323.23 1409.74 429.78 1444.51 323.23 1477.42 323.23 1428.46 464.13"/>
      <path class="c" d="M1762.54,345.49c-23.86,0-41.96,19.13-41.96,43.4s18.1,43.82,42.99,43.82c17.28,0,30.44-9.05,38.47-22.83l24.89,17.28c-13.58,22.22-34.35,35.38-62.95,35.38-43.4,0-75.91-32.3-75.91-73.64s32.3-73.03,75.08-73.03c27.77,0,49.78,11.52,63.15,35.18l-25.3,17.49c-8.23-13.58-20.57-23.04-38.47-23.04h0Z"/>
      <polygon class="c" points="1264.61 464.13 1264.61 409 1204.96 409 1204.96 464.13 1173.07 464.13 1173.07 323.23 1204.96 323.23 1204.96 379.79 1264.61 379.79 1264.61 323.23 1296.5 323.23 1296.5 464.13 1264.61 464.13"/>
      <path class="c" d="M1602.91,322.41h-39.08l-49.78,140.91h32.71l8.02-24.27h55.34l8.02,24.27h34.35l-49.58-140.91ZM1564.03,410.86l18.31-55.13,18.31,55.13h-36.62Z"/>
    </g>
    <g>
      <polygon points="132.98 217.69 73.81 217.69 0 4.36 52.01 4.36 104.64 165.68 157.27 4.36 207.1 4.36 132.98 217.69"/>
      <rect x="222.05" y="4.36" width="48.27" height="213.33"/>
      <polygon points="428.53 217.69 342.57 82.53 342.57 217.69 296.17 217.69 296.17 4.36 348.8 4.36 434.76 139.83 434.76 4.36 481.16 4.36 481.16 217.69 428.53 217.69"/>
      <path d="M615.07,44.85c-36.13,0-63.53,28.96-63.53,65.71s27.41,66.33,65.09,66.33c26.16,0,46.09-13.7,58.24-34.57l37.68,26.16c-20.55,33.63-52.01,53.57-95.3,53.57-65.71,0-114.92-48.89-114.92-111.49S551.23,0,616.01,0c42.04,0,75.37,17.44,95.61,53.25l-38.31,26.47c-12.46-20.55-31.14-34.88-58.24-34.88h0Z"/>
      <polygon points="1138.9 217.69 1081.28 90.31 1081.28 217.69 1034.88 217.69 1034.88 4.36 1092.81 4.36 1155.4 145.44 1218 4.36 1275.93 4.36 1275.93 217.69 1228.59 217.69 1228.59 89.69 1170.66 217.69 1138.9 217.69 1138.9 217.69"/>
      <polygon points="1302.09 217.69 1302.09 4.36 1458.11 4.36 1458.11 47.96 1350.36 47.96 1350.36 88.13 1450.02 88.13 1450.02 130.49 1350.36 130.49 1350.36 174.09 1458.42 174.09 1458.42 217.69 1302.09 217.69"/>
      <path d="M1587.67,44.85c-36.13,0-63.53,28.96-63.53,65.71s27.41,66.33,65.09,66.33c26.16,0,46.09-13.7,58.24-34.57l37.68,26.16c-20.55,33.63-52.01,53.57-95.3,53.57-65.71,0-114.92-48.89-114.92-111.49S1523.82,0,1588.6,0c42.04,0,75.37,17.44,95.61,53.25l-38.31,26.47c-12.46-20.55-31.14-34.88-58.24-34.88h0Z"/>
      <polygon points="1842.42 217.69 1842.42 134.23 1752.1 134.23 1752.1 217.69 1703.83 217.69 1703.83 4.36 1752.1 4.36 1752.1 90 1842.42 90 1842.42 4.36 1890.69 4.36 1890.69 217.69 1842.42 217.69"/>
      <path d="M2040.17,4.36h-59.17l-75.37,213.33h49.52l12.15-36.75h83.77l12.15,36.75h52.01L2040.17,4.36ZM1981.31,138.27l27.72-83.46,27.72,83.46h-55.43Z"/>
      <polygon points="2262.53 217.69 2176.58 82.53 2176.58 217.69 2130.18 217.69 2130.18 4.36 2182.81 4.36 2268.76 139.83 2268.76 4.36 2315.17 4.36 2315.17 217.69 2262.53 217.69"/>
      <rect x="2341.33" y="4.36" width="48.27" height="213.33"/>
      <path d="M2523.2,44.85c-36.13,0-63.53,28.96-63.53,65.71s27.41,66.33,65.09,66.33c26.16,0,46.09-13.7,58.24-34.57l37.68,26.16c-20.55,33.63-52.01,53.57-95.3,53.57-65.71,0-114.92-48.89-114.92-111.49S2459.36,0,2524.14,0c42.04,0,75.37,17.44,95.61,53.25l-38.31,26.47c-12.46-20.55-31.14-34.88-58.24-34.88h0Z"/>
      <path d="M2762.69,4.36h-59.17l-75.37,213.33h49.52l12.15-36.75h83.77l12.15,36.75h52.01l-75.05-213.33ZM2703.83,138.27l27.72-83.46,27.72,83.46h-55.43Z"/>
      <polygon points="2852.69 217.69 2852.69 4.36 2900.97 4.36 2900.97 173.47 3000 173.47 3000 217.69 2852.69 217.69"/>
      <path d="M952.35,110.87C952.35,47.65,903.15,0,839.3,0s-113.05,47.65-113.05,111.18,50.76,110.87,113.05,110.87h0c63.84,0,113.05-47.65,113.05-111.18ZM775.46,111.18c0-37.37,27.72-66.33,63.84-66.33s63.84,28.96,63.84,66.02-27.72,66.33-63.84,66.33-63.84-28.65-63.84-66.02Z"/>
    </g>
  </g>
</svg>